<mxfile host="65bd71144e">
    <diagram id="HUgoJEYIysB0Nd73ohhI" name="PÃ¡gina-1">
        <mxGraphModel dx="1489" dy="411" grid="1" gridSize="10" guides="1" tooltips="1" connect="1" arrows="1" fold="1" page="1" pageScale="1" pageWidth="827" pageHeight="1169" math="0" shadow="0">
            <root>
                <mxCell id="0"/>
                <mxCell id="1" parent="0"/>
                <mxCell id="4" value="" style="edgeStyle=none;html=1;" parent="1" source="2" target="3" edge="1">
                    <mxGeometry relative="1" as="geometry"/>
                </mxCell>
                <mxCell id="2" value="INICIO" style="ellipse;whiteSpace=wrap;html=1;fillColor=#d80073;fontColor=#ffffff;strokeColor=#A50040;" parent="1" vertex="1">
                    <mxGeometry x="305" y="10" width="120" height="80" as="geometry"/>
                </mxCell>
                <mxCell id="23" style="edgeStyle=none;html=1;" parent="1" source="3" target="5" edge="1">
                    <mxGeometry relative="1" as="geometry"/>
                </mxCell>
                <mxCell id="3" value="p_compra" style="shape=parallelogram;perimeter=parallelogramPerimeter;whiteSpace=wrap;html=1;fixedSize=1;fillColor=#0050ef;fontColor=#ffffff;strokeColor=#001DBC;" parent="1" vertex="1">
                    <mxGeometry x="300" y="200" width="120" height="60" as="geometry"/>
                </mxCell>
                <mxCell id="32" value="" style="edgeStyle=none;html=1;" parent="1" source="5" edge="1">
                    <mxGeometry relative="1" as="geometry">
                        <mxPoint x="560" y="420" as="targetPoint"/>
                        <Array as="points">
                            <mxPoint x="560" y="370"/>
                        </Array>
                    </mxGeometry>
                </mxCell>
                <mxCell id="37" style="edgeStyle=none;html=1;entryX=0.467;entryY=0;entryDx=0;entryDy=0;entryPerimeter=0;fontColor=#FFFFFF;" parent="1" source="5" target="36" edge="1">
                    <mxGeometry relative="1" as="geometry">
                        <Array as="points">
                            <mxPoint x="220" y="370"/>
                        </Array>
                    </mxGeometry>
                </mxCell>
                <mxCell id="5" value="ganancia=p_compra&lt;br&gt;&amp;lt;3000" style="rhombus;whiteSpace=wrap;html=1;fillColor=#60a917;fontColor=#ffffff;strokeColor=#2D7600;" parent="1" vertex="1">
                    <mxGeometry x="295" y="310" width="130" height="120" as="geometry"/>
                </mxCell>
                <mxCell id="50" style="edgeStyle=none;html=1;fontColor=#FFFFFF;entryX=0.5;entryY=0;entryDx=0;entryDy=0;" parent="1" source="31" target="47" edge="1">
                    <mxGeometry relative="1" as="geometry">
                        <mxPoint x="380" y="910" as="targetPoint"/>
                        <Array as="points">
                            <mxPoint x="560" y="910"/>
                            <mxPoint x="385" y="910"/>
                        </Array>
                    </mxGeometry>
                </mxCell>
                <mxCell id="31" value="p_venta" style="shape=document;whiteSpace=wrap;html=1;boundedLbl=1;fillColor=#0050ef;strokeColor=#001DBC;fontColor=#ffffff;size=0.4375;" parent="1" vertex="1">
                    <mxGeometry x="500" y="505" width="120" height="80" as="geometry"/>
                </mxCell>
                <mxCell id="35" value="" style="edgeStyle=none;html=1;" parent="1" source="33" target="31" edge="1">
                    <mxGeometry relative="1" as="geometry"/>
                </mxCell>
                <mxCell id="33" value="&lt;div style=&quot;font-family: Consolas, &amp;quot;Courier New&amp;quot;, monospace; font-size: 14px; line-height: 19px;&quot;&gt;&lt;div style=&quot;&quot;&gt;&lt;font color=&quot;#ffffff&quot;&gt;ganancia&lt;/font&gt;&lt;/div&gt;&lt;div style=&quot;&quot;&gt;&lt;font color=&quot;#ffffff&quot;&gt;&amp;nbsp;p_venta=p_compra&lt;/font&gt;&lt;span style=&quot;background-color: initial;&quot;&gt;+&lt;/span&gt;&lt;/div&gt;&lt;div style=&quot;&quot;&gt;&lt;font color=&quot;#ffffff&quot;&gt;ganancia&lt;/font&gt;&lt;/div&gt;&lt;/div&gt;" style="rounded=0;whiteSpace=wrap;html=1;fillColor=#f0a30a;fontColor=#000000;strokeColor=#BD7000;" parent="1" vertex="1">
                    <mxGeometry x="490" y="420" width="140" height="60" as="geometry"/>
                </mxCell>
                <mxCell id="39" value="" style="edgeStyle=none;html=1;fontColor=#FFFFFF;" parent="1" source="36" edge="1">
                    <mxGeometry relative="1" as="geometry">
                        <mxPoint x="380" y="560" as="targetPoint"/>
                        <Array as="points">
                            <mxPoint x="380" y="515"/>
                        </Array>
                    </mxGeometry>
                </mxCell>
                <mxCell id="44" style="edgeStyle=none;html=1;entryX=0.5;entryY=0;entryDx=0;entryDy=0;fontColor=#FFFFFF;" parent="1" source="36" target="52" edge="1">
                    <mxGeometry relative="1" as="geometry">
                        <mxPoint x="80.00000000000023" y="580" as="targetPoint"/>
                        <Array as="points">
                            <mxPoint x="80" y="515"/>
                        </Array>
                    </mxGeometry>
                </mxCell>
                <mxCell id="36" value="&lt;div style=&quot;font-family: Consolas, &amp;quot;Courier New&amp;quot;, monospace; font-size: 14px; line-height: 19px;&quot;&gt;p_compra&amp;gt;=3000 and p_compra&amp;lt;=6000&lt;/div&gt;" style="rhombus;whiteSpace=wrap;html=1;labelBackgroundColor=none;fontColor=#ffffff;fillColor=#a0522d;strokeColor=#6D1F00;" parent="1" vertex="1">
                    <mxGeometry x="150" y="440" width="150" height="150" as="geometry"/>
                </mxCell>
                <mxCell id="42" value="" style="edgeStyle=none;html=1;fontColor=#FFFFFF;" parent="1" source="38" target="40" edge="1">
                    <mxGeometry relative="1" as="geometry"/>
                </mxCell>
                <mxCell id="38" value="&lt;div style=&quot;font-family: Consolas, &amp;quot;Courier New&amp;quot;, monospace; font-size: 14px; line-height: 19px;&quot;&gt;&lt;div style=&quot;&quot;&gt;&lt;div style=&quot;line-height: 19px;&quot;&gt;&lt;div style=&quot;&quot;&gt;ganancia=500,&lt;/div&gt;&lt;div style=&quot;&quot;&gt;&lt;span style=&quot;background-color: initial;&quot;&gt;p_venta=p_compra&lt;/span&gt;&lt;/div&gt;&lt;div style=&quot;&quot;&gt;&lt;span style=&quot;background-color: initial;&quot;&gt;+ganancia&lt;/span&gt;&lt;/div&gt;&lt;/div&gt;&lt;/div&gt;&lt;/div&gt;" style="rounded=0;whiteSpace=wrap;html=1;fillColor=#6a00ff;fontColor=#ffffff;strokeColor=#3700CC;" parent="1" vertex="1">
                    <mxGeometry x="310" y="560" width="150" height="70" as="geometry"/>
                </mxCell>
                <mxCell id="49" style="edgeStyle=none;html=1;fontColor=#FFFFFF;entryX=0.5;entryY=0;entryDx=0;entryDy=0;" parent="1" source="40" target="47" edge="1">
                    <mxGeometry relative="1" as="geometry">
                        <mxPoint x="385" y="900" as="targetPoint"/>
                    </mxGeometry>
                </mxCell>
                <mxCell id="40" value="p_venta" style="shape=document;whiteSpace=wrap;html=1;boundedLbl=1;fillColor=#76608a;strokeColor=#432D57;fontColor=#ffffff;" parent="1" vertex="1">
                    <mxGeometry x="325" y="660" width="120" height="80" as="geometry"/>
                </mxCell>
                <mxCell id="46" value="" style="edgeStyle=none;html=1;fontColor=#FFFFFF;" parent="1" source="52" target="45" edge="1">
                    <mxGeometry relative="1" as="geometry">
                        <mxPoint x="80.00000000000023" y="760" as="sourcePoint"/>
                    </mxGeometry>
                </mxCell>
                <mxCell id="48" style="edgeStyle=none;html=1;fontColor=#FFFFFF;entryX=0.5;entryY=0;entryDx=0;entryDy=0;" parent="1" source="45" target="47" edge="1">
                    <mxGeometry relative="1" as="geometry">
                        <mxPoint x="380" y="960" as="targetPoint"/>
                        <Array as="points">
                            <mxPoint x="80" y="910"/>
                            <mxPoint x="385" y="910"/>
                        </Array>
                    </mxGeometry>
                </mxCell>
                <mxCell id="45" value="p_venta" style="shape=document;whiteSpace=wrap;html=1;boundedLbl=1;fillColor=#fa6800;strokeColor=#C73500;fontColor=#000000;labelBackgroundColor=none;" parent="1" vertex="1">
                    <mxGeometry x="20" y="810" width="120" height="80" as="geometry"/>
                </mxCell>
                <mxCell id="47" value="FIN" style="ellipse;whiteSpace=wrap;html=1;labelBackgroundColor=none;fontColor=#ffffff;fillColor=#d80073;strokeColor=#A50040;" parent="1" vertex="1">
                    <mxGeometry x="325" y="960" width="120" height="80" as="geometry"/>
                </mxCell>
                <mxCell id="52" value="&lt;div style=&quot;font-family: Consolas, &amp;quot;Courier New&amp;quot;, monospace; font-size: 14px;&quot;&gt;p_compra&amp;gt;6000,&lt;/div&gt;&lt;div style=&quot;font-family: Consolas, &amp;quot;Courier New&amp;quot;, monospace; font-size: 14px;&quot;&gt;ganancia=(p_compra*0.25)&lt;span style=&quot;background-color: initial;&quot;&gt;&amp;nbsp; &amp;nbsp; &amp;nbsp;p_venta=p_compra+ganancia&lt;/span&gt;&lt;/div&gt;" style="rounded=0;whiteSpace=wrap;html=1;labelBackgroundColor=none;fontColor=#ffffff;fillColor=#008a00;strokeColor=#005700;" parent="1" vertex="1">
                    <mxGeometry x="-7.5" y="620" width="175" height="100" as="geometry"/>
                </mxCell>
            </root>
        </mxGraphModel>
    </diagram>
</mxfile>